<svg width="200" height="158" viewBox="0 0 200 158" fill="none" xmlns="http://www.w3.org/2000/svg">
<path d="M195.509 132.79H4.49316V132.884H195.509V132.79Z" fill="#EBEBEB"/>
<path d="M176.368 138.937H163.715V139.031H176.368V138.937Z" fill="#EBEBEB"/>
<path d="M131.03 139.976H127.71V140.071H131.03V139.976Z" fill="#EBEBEB"/>
<path d="M163.334 135.391H156.001V135.486H163.334V135.391Z" fill="#EBEBEB"/>
<path d="M41.0343 136.033H24.5332V136.128H41.0343V136.033Z" fill="#EBEBEB"/>
<path d="M46.8562 136.033H44.4375V136.128H46.8562V136.033Z" fill="#EBEBEB"/>
<path d="M90.5055 137.646H54.7173V137.74H90.5055V137.646Z" fill="#EBEBEB"/>
<path d="M95.0334 115.753H21.2669C20.689 115.751 20.1351 115.521 19.7271 115.111C19.3191 114.702 19.0902 114.147 19.0908 113.57V9.87564C19.0957 9.30128 19.327 8.75203 19.7344 8.34718C20.1418 7.94233 20.6926 7.71458 21.2669 7.71338H95.0334C95.6119 7.71338 96.1669 7.94306 96.5762 8.35196C96.9855 8.76087 97.2158 9.31554 97.2164 9.89412V113.57C97.2164 114.148 96.9864 114.704 96.577 115.113C96.1676 115.523 95.6123 115.753 95.0334 115.753ZM21.2669 7.78961C20.7155 7.78961 20.1867 8.00866 19.7968 8.39857C19.4069 8.78847 19.1878 9.3173 19.1878 9.86871V113.57C19.1878 114.121 19.4069 114.65 19.7968 115.04C20.1867 115.43 20.7155 115.649 21.2669 115.649H95.0334C95.5848 115.649 96.1136 115.43 96.5035 115.04C96.8934 114.65 97.1124 114.121 97.1124 113.57V9.87564C97.1124 9.32423 96.8934 8.7954 96.5035 8.4055C96.1136 8.01559 95.5848 7.79654 95.0334 7.79654L21.2669 7.78961Z" fill="#EBEBEB"/>
<path d="M177.671 115.753H103.902C103.323 115.751 102.769 115.521 102.36 115.112C101.95 114.703 101.72 114.148 101.719 113.569V9.87564C101.725 9.30065 101.958 8.7514 102.367 8.34675C102.775 7.94209 103.327 7.71455 103.902 7.71338H177.671C178.244 7.71518 178.795 7.94321 179.202 8.34799C179.609 8.75278 179.839 9.30168 179.844 9.87564V113.569C179.844 114.147 179.616 114.701 179.208 115.11C178.801 115.519 178.248 115.75 177.671 115.753ZM103.902 7.78961C103.35 7.78961 102.822 8.00866 102.432 8.39857C102.042 8.78847 101.823 9.3173 101.823 9.86871V113.569C101.823 114.121 102.042 114.65 102.432 115.04C102.822 115.43 103.35 115.649 103.902 115.649H177.671C178.222 115.649 178.751 115.43 179.141 115.04C179.531 114.65 179.75 114.121 179.75 113.569V9.87564C179.75 9.32423 179.531 8.7954 179.141 8.4055C178.751 8.01559 178.222 7.79654 177.671 7.79654L103.902 7.78961Z" fill="#EBEBEB"/>
<path d="M87.9483 95.9133H39.6509V99.3207H87.9483V95.9133Z" fill="#EBEBEB"/>
<path d="M87.948 95.9133H66.9468V99.3207H87.948V95.9133Z" fill="#E0E0E0"/>
<path d="M46.7868 99.3208H39.6509V132.79H46.7868V99.3208Z" fill="#EBEBEB"/>
<path d="M46.7868 102.774L39.6509 100.344V99.3208H46.7868V102.774Z" fill="#E0E0E0"/>
<path d="M87.946 99.3208H80.8101V132.79H87.946V99.3208Z" fill="#E0E0E0"/>
<path d="M74.0827 99.3208H66.9468V132.79H74.0827V99.3208Z" fill="#EBEBEB"/>
<path d="M74.0804 102.774L66.9468 100.344V99.3208H74.0804V102.774Z" fill="#E0E0E0"/>
<path d="M60.6496 99.3208H53.5137V132.79H60.6496V99.3208Z" fill="#E0E0E0"/>
<path d="M92.4853 20.0032H31.6162V71.8328H92.4853V20.0032Z" fill="#EBEBEB"/>
<path d="M93.1645 19.9985H92.4854V71.8281H93.1645V19.9985Z" fill="#E0E0E0"/>
<path d="M90.1984 22.2903H33.9126V69.5366H90.1984V22.2903Z" fill="#F5F5F5"/>
<path d="M61.3726 62.373C64.8123 50.9125 65.7618 34.0071 73.0779 36.338C80.394 38.6689 70.814 63.6643 70.814 63.6643L61.3726 62.373Z" fill="white"/>
<path d="M67.2794 62.9366C63.7796 46.3246 64.6621 24.2746 53.7907 24.7782C42.9193 25.2819 53.7907 63.6574 53.7907 63.6574L67.2794 62.9366Z" fill="white"/>
<path d="M74.9631 61.0722H51.169C50.683 61.0552 50.2099 61.2305 49.8523 61.56C49.4946 61.8895 49.2813 62.3467 49.2585 62.8325C48.7734 73.7962 50.5683 84.991 53.9134 95.9132H72.1401C75.4828 84.9702 77.2778 73.7962 76.7927 62.8325C76.7736 62.3597 76.5726 61.9126 76.2317 61.5846C75.8907 61.2566 75.4362 61.073 74.9631 61.0722Z" fill="#EBEBEB"/>
<path d="M129.11 25.783H127.77V132.79H129.11V25.783Z" fill="#E0E0E0"/>
<path d="M160.624 25.783H159.284V132.79H160.624V25.783Z" fill="#E0E0E0"/>
<path d="M119.601 25.783H118.261V132.79H119.601V25.783Z" fill="#EBEBEB"/>
<path d="M151.116 25.783H149.776V132.79H151.116V25.783Z" fill="#EBEBEB"/>
<path d="M160.624 25.0483H118.261V26.5106H160.624V25.0483Z" fill="#EBEBEB"/>
<path d="M160.624 51.252H118.261V52.7143H160.624V51.252Z" fill="#EBEBEB"/>
<path d="M160.624 77.4556H118.261V78.9179H160.624V77.4556Z" fill="#EBEBEB"/>
<path d="M160.624 103.659H118.261V105.121H160.624V103.659Z" fill="#EBEBEB"/>
<path d="M160.624 129.863H118.261V131.325H160.624V129.863Z" fill="#EBEBEB"/>
<path d="M160.624 25.0483H151.116V26.5106H160.624V25.0483Z" fill="#E0E0E0"/>
<path d="M160.624 51.252H151.116V52.7143H160.624V51.252Z" fill="#E0E0E0"/>
<path d="M160.624 77.4556H151.116V78.9179H160.624V77.4556Z" fill="#E0E0E0"/>
<path d="M160.624 103.659H151.116V105.121H160.624V103.659Z" fill="#E0E0E0"/>
<path d="M160.624 129.863H151.116V131.325H160.624V129.863Z" fill="#E0E0E0"/>
<path d="M135.349 33.9584V31.8955H130.267V33.9584C130.267 34.605 130.01 35.2252 129.553 35.6826C129.096 36.14 128.477 36.3973 127.83 36.3979C127.183 36.3979 126.563 36.6545 126.105 37.1115C125.647 37.5684 125.389 38.1883 125.388 38.8351V51.2588H140.224V38.8397C140.222 38.1929 139.965 37.573 139.507 37.1161C139.049 36.6592 138.429 36.4025 137.782 36.4025C137.135 36.4007 136.516 36.1422 136.06 35.6839C135.604 35.2256 135.348 34.605 135.349 33.9584Z" fill="#F0F0F0"/>
<path d="M145.89 68.9382H123.572V77.4602H145.89V68.9382Z" fill="#F0F0F0"/>
<path d="M149.776 68.9336H145.89V77.4556H149.776V68.9336Z" fill="#E6E6E6"/>
<path d="M149.776 72.7268H145.89V73.667H149.776V72.7268Z" fill="#EBEBEB"/>
<path d="M145.89 72.7268H123.572V73.667H145.89V72.7268Z" fill="#F5F5F5"/>
<path d="M139.912 114.796H122.479V129.863H139.912V114.796Z" fill="#F0F0F0"/>
<path d="M142.945 114.801H139.912V129.867H142.945V114.801Z" fill="#E6E6E6"/>
<path d="M142.945 121.5H139.912V123.161H142.945V121.5Z" fill="#EBEBEB"/>
<path d="M139.912 121.5H122.479V123.161H139.912V121.5Z" fill="#F5F5F5"/>
<path d="M142.945 119.744H139.912V120.336H142.945V119.744Z" fill="#EBEBEB"/>
<path d="M139.912 119.744H122.479V120.336H139.912V119.744Z" fill="#F5F5F5"/>
<path d="M126.728 88.3408H123.572V103.661H126.728V88.3408Z" fill="#F0F0F0"/>
<path d="M126.728 93.7996H123.572V98.2003H126.728V93.7996Z" fill="#FAFAFA"/>
<path d="M137.463 88.3455H126.728V103.666H137.463V88.3455Z" fill="#E6E6E6"/>
<path d="M131.602 86.3611H128.038V103.659H131.602V86.3611Z" fill="#EBEBEB"/>
<path d="M131.602 91.8591H128.038V94.5227H131.602V91.8591Z" fill="#FAFAFA"/>
<path d="M131.602 96.3062H128.038V98.9697H131.602V96.3062Z" fill="#FAFAFA"/>
<path d="M143.728 86.3611H131.607V103.659H143.728V86.3611Z" fill="#E0E0E0"/>
<path d="M135.571 88.3408H133.649V103.661H135.571V88.3408Z" fill="#F0F0F0"/>
<path d="M135.241 90.2812H133.979V101.719H135.241V90.2812Z" fill="#FAFAFA"/>
<path d="M142.097 88.3455H135.569V103.666H142.097V88.3455Z" fill="#E6E6E6"/>
<path d="M140.702 87.5347H138.533V103.659H140.702V87.5347Z" fill="#EBEBEB"/>
<path d="M140.702 92.6584H138.533V95.1418H140.702V92.6584Z" fill="#FAFAFA"/>
<path d="M140.702 96.8074H138.533V99.2907H140.702V96.8074Z" fill="#FAFAFA"/>
<path d="M148.076 87.5347H140.702V103.659H148.076V87.5347Z" fill="#E0E0E0"/>
<path d="M136.354 68.9359C138.978 68.9359 141.106 66.8084 141.106 64.184C141.106 61.5596 138.978 59.4321 136.354 59.4321C133.73 59.4321 131.602 61.5596 131.602 64.184C131.602 66.8084 133.73 68.9359 136.354 68.9359Z" fill="#F5F5F5"/>
<path d="M141.615 68.9266C143.434 68.9266 144.909 67.4517 144.909 65.6323C144.909 63.813 143.434 62.3381 141.615 62.3381C139.795 62.3381 138.32 63.813 138.32 65.6323C138.32 67.4517 139.795 68.9266 141.615 68.9266Z" fill="#EBEBEB"/>
<path d="M100 150.042C140.909 150.042 174.071 148.105 174.071 145.717C174.071 143.329 140.909 141.393 100 141.393C59.0916 141.393 25.9287 143.329 25.9287 145.717C25.9287 148.105 59.0916 150.042 100 150.042Z" fill="#F5F5F5"/>
<path d="M52.6704 116.092H101.739V141.425C101.739 142.081 101.479 142.709 101.015 143.173C100.552 143.636 99.9232 143.897 99.2676 143.897H55.1445C54.8197 143.897 54.4981 143.833 54.1979 143.709C53.8977 143.585 53.625 143.403 53.3952 143.174C53.1654 142.944 52.9832 142.671 52.8588 142.371C52.7344 142.071 52.6704 141.75 52.6704 141.425V116.092Z" fill="#D1D3D4"/>
<path d="M52.6705 116.092H87.3937L83.1223 110.624C82.6603 110.026 81.4914 109.541 80.5234 109.541H49.2977C48.3344 109.541 47.9301 110.026 48.3991 110.624L52.6705 116.092Z" fill="#D1D3D4"/>
<path opacity="0.2" d="M52.6705 116.092H87.3937L83.1223 110.624C82.6603 110.026 81.4914 109.541 80.5234 109.541H49.2977C48.3344 109.541 47.9301 110.026 48.3991 110.624L52.6705 116.092Z" fill="black"/>
<path d="M101.739 116.092H67.0186L71.29 112.528C71.752 112.144 72.9209 111.821 73.8888 111.821H105.11C106.076 111.821 106.478 112.137 106.009 112.528L101.739 116.092Z" fill="#D1D3D4"/>
<path opacity="0.2" d="M67.0186 115.968H101.739V141.293C101.739 141.618 101.676 141.939 101.551 142.239C101.427 142.539 101.245 142.812 101.016 143.041C100.786 143.271 100.514 143.453 100.214 143.577C99.9137 143.701 99.5923 143.765 99.2677 143.765H69.4904C69.1658 143.765 68.8443 143.701 68.5445 143.577C68.2446 143.453 67.9721 143.271 67.7425 143.041C67.513 142.812 67.3309 142.539 67.2067 142.239C67.0825 141.939 67.0186 141.618 67.0186 141.293V115.968Z" fill="white"/>
<path opacity="0.5" d="M56.979 116.092V133.467L58.1803 132.519L59.0235 133.467L59.7581 132.411L60.5112 133.467L61.5576 132.677L62.7104 133.467V116.092H56.979Z" fill="white"/>
<path d="M86.426 91.7113L106.783 66.2724L79.6805 43.5178L61.724 64.1286L59.0512 69.2802C58.7952 69.5625 58.6617 69.9348 58.6799 70.3155C58.6981 70.6962 58.8665 71.0541 59.1482 71.3107L59.2291 71.3777L83.6793 91.91C84.0779 92.2291 84.5823 92.3859 85.0916 92.3491C85.6009 92.3123 86.0774 92.0845 86.426 91.7113Z" fill="#D1D3D4"/>
<path opacity="0.5" d="M72.4681 72.9556L69.5366 77.6751L70.7171 77.9315L71.119 79.0219L71.9022 79.0681L72.2649 80.0037L73.2236 80.2832L73.9605 81.4568L76.892 76.7395L72.4681 72.9556Z" fill="white"/>
<path opacity="0.1" d="M105.896 65.4962L87.6411 85.8575L61.7124 64.0893L79.6804 43.4878L105.896 65.4962Z" fill="black"/>
<path d="M105.896 65.5332L87.6411 85.8945L95.1975 86.4536L113.17 65.8497L105.896 65.5332Z" fill="#D1D3D4"/>
<path opacity="0.3" d="M105.896 65.5332L87.6411 85.8945L95.1975 86.4536L113.17 65.8497L105.896 65.5332Z" fill="black"/>
<path d="M72.4106 43.2036L54.1538 63.5695L61.7125 64.1286L79.6805 43.5247L72.4106 43.2036Z" fill="#D1D3D4"/>
<path opacity="0.4" d="M72.4106 43.2036L54.1538 63.5695L61.7125 64.1286L79.6805 43.5247L72.4106 43.2036Z" fill="black"/>
<path opacity="0.1" d="M100.263 71.782L105.884 65.5123L79.6687 43.5039L76.3145 51.587L100.263 71.782Z" fill="black"/>
<path opacity="0.2" d="M61.7124 64.1285L79.6804 43.5247L76.3261 51.6077L63.6737 65.7733L61.7124 64.1285Z" fill="black"/>
<path d="M120.722 28.8325C120.89 30.8561 121.389 34.5615 122.586 35.4186C122.586 35.4186 122.304 37.8511 118.003 38.4749C113.288 39.1679 115.404 36.4651 115.404 36.4651C117.882 35.4717 117.536 33.5728 116.824 31.8449L118.642 29.7658C119.342 28.9873 120.629 27.7952 120.722 28.8325Z" fill="#F9B499"/>
<path d="M124.127 36.4074C124.508 36.0586 123.744 34.6702 123.275 34.4738C122.043 33.9587 117.012 34.4738 115.122 36.0909C114.965 36.3594 114.869 36.6599 114.843 36.9701C114.817 37.2804 114.861 37.5926 114.972 37.8835L124.127 36.4074Z" fill="#0071F2"/>
<path opacity="0.2" d="M124.127 36.4074C124.508 36.0586 123.744 34.6702 123.275 34.4738C122.043 33.9587 117.012 34.4738 115.122 36.0909C114.965 36.3594 114.869 36.6599 114.843 36.9701C114.817 37.2804 114.861 37.5926 114.972 37.8835L124.127 36.4074Z" fill="#8BE3F9"/>
<path d="M122.228 142.464H119.038L118.719 135.083H121.909L122.228 142.464Z" fill="#F9B499"/>
<path d="M144.634 137.424L141.695 138.436L138.646 131.48L141.584 130.468L144.634 137.424Z" fill="#F9B499"/>
<path d="M140.995 137.708L144.435 136.657C144.495 136.638 144.561 136.641 144.619 136.664C144.678 136.688 144.727 136.731 144.758 136.786L146.193 139.3C146.224 139.353 146.244 139.413 146.252 139.474C146.26 139.536 146.255 139.599 146.238 139.658C146.221 139.718 146.192 139.774 146.153 139.822C146.114 139.87 146.065 139.91 146.01 139.939C145.98 139.958 145.948 139.972 145.913 139.981C144.71 140.328 144.109 140.443 142.605 140.905C141.681 141.187 139.339 142.074 138.02 142.337C136.701 142.601 136.278 141.339 136.791 141.115C139.082 140.101 140.025 138.953 140.568 138.059C140.663 137.894 140.815 137.769 140.995 137.708Z" fill="#8BE3F9"/>
<path d="M119.061 142.093H122.54C122.603 142.094 122.664 142.116 122.713 142.155C122.762 142.194 122.797 142.249 122.812 142.31L123.443 145.144C123.457 145.203 123.458 145.265 123.448 145.325C123.438 145.385 123.416 145.442 123.384 145.494C123.351 145.545 123.309 145.59 123.259 145.625C123.21 145.66 123.154 145.685 123.094 145.699C123.057 145.703 123.02 145.703 122.983 145.699C121.727 145.68 119.927 145.604 118.333 145.604C116.485 145.604 115.713 145.706 113.547 145.706C112.241 145.706 111.879 144.384 112.424 144.262C114.919 143.717 116.138 143.659 118.291 142.33C118.521 142.182 118.787 142.1 119.061 142.093Z" fill="#8BE3F9"/>
<path d="M128.324 37.4492C129.248 38.3016 130.055 39.1541 130.889 40.0435C131.722 40.9329 132.492 41.8546 133.24 42.8364C134.023 43.8339 134.733 44.8861 135.365 45.9851C135.711 46.5907 136.01 47.2217 136.26 47.8724C136.324 48.0526 136.389 48.2236 136.442 48.4176C136.505 48.615 136.557 48.8155 136.599 49.0182L136.664 49.3347L136.71 49.6859C136.754 50.0078 136.754 50.3342 136.71 50.6561C136.623 51.2645 136.398 51.8451 136.054 52.354C135.802 52.7251 135.506 53.0647 135.174 53.3659C134.64 53.8503 134.056 54.277 133.432 54.6387C132.333 55.267 131.183 55.8025 129.994 56.2396C127.739 57.0763 125.415 57.7148 123.048 58.1478L122.38 55.8562C124.459 54.9598 126.555 53.9896 128.493 52.9524C129.437 52.4594 130.346 51.9022 131.214 51.2845C131.574 51.0282 131.906 50.7339 132.203 50.4066C132.296 50.31 132.373 50.2002 132.434 50.0809C132.466 50.0162 132.434 50.0231 132.397 50.1617C132.369 50.4182 132.374 50.2195 132.314 50.0809C132.293 50.0162 132.258 49.9284 132.226 49.8499C132.194 49.7713 132.148 49.6697 132.106 49.5773C131.899 49.1605 131.667 48.7563 131.413 48.3668C130.823 47.4909 130.185 46.648 129.502 45.8418C128.809 45.0079 128.059 44.1786 127.299 43.3654C126.539 42.5522 125.739 41.7298 125.007 40.9744L128.324 37.4492Z" fill="#F9B499"/>
<path d="M123.256 55.4934L120.253 56.4036L122.186 59.5823C122.186 59.5823 123.963 58.8477 124.356 57.3392L123.256 55.4934Z" fill="#FFC3BD"/>
<path d="M119.033 57.5286L120.218 60.1506L122.163 59.5846L120.23 56.4036L119.033 57.5286Z" fill="#FFC3BD"/>
<path d="M121.281 38.3133C120.994 41.3695 127.458 46.1006 127.458 46.1006L133.681 41.8408C132.601 39.8446 131.021 38.1633 129.096 36.9618C125.527 34.6841 121.639 34.5154 121.281 38.3133Z" fill="#8BE3F9"/>
<path d="M110.698 38.0684C110.698 38.0684 107.905 42.3559 114.537 65.3461L131.401 62.8558C131.17 60.5249 128.345 50.3582 128.25 39.2465C128.242 38.1929 127.816 37.1855 127.066 36.4457C126.316 35.7059 125.303 35.2941 124.249 35.3009C124.189 35.3009 124.129 35.3009 124.071 35.3009C123.581 35.3263 123.078 35.3609 122.577 35.4117C120.171 35.6268 117.78 35.98 115.415 36.4698C113.804 36.88 112.227 37.4145 110.698 38.0684Z" fill="#8BE3F9"/>
<path opacity="0.2" d="M110.285 45.4582L110.342 45.3936L114.307 45.7401C114.912 48.2997 112.703 51.7902 111.534 53.4096C110.976 50.7834 110.559 48.1291 110.285 45.4582Z" fill="black"/>
<path d="M120.519 64.4635C120.519 64.4635 123.256 87.7494 125.24 96.8721C127.414 106.866 138.145 134.111 138.145 134.111L143.495 132.263C143.495 132.263 136.618 111.747 134.793 97.7776C133.39 87.0495 131.392 62.8557 131.392 62.8557L120.519 64.4635Z" fill="#083743"/>
<path d="M136.77 132.402C136.745 132.402 137.867 134.693 137.867 134.693L144.105 132.665L143.37 130.801L136.77 132.402Z" fill="#2F2E41"/>
<path opacity="0.3" d="M122.029 76.4092C122.884 82.8775 123.981 90.5447 124.942 95.4399C126.363 87.9389 126.693 78.4698 122.029 76.4092Z" fill="black"/>
<path d="M114.538 65.3461C114.538 65.3461 112.267 87.2205 112.627 96.9415C112.985 107.048 117.709 138.154 117.709 138.154H123.106C123.106 138.154 122.112 107.637 122.341 97.7131C122.605 86.8902 126.663 63.5535 126.663 63.5535L114.538 65.3461Z" fill="#083743"/>
<path d="M116.66 136.003C116.637 136.003 116.965 138.241 116.965 138.241H123.533L123.711 136.243L116.66 136.003Z" fill="#2F2E41"/>
<path d="M113.491 43.4415C112.895 44.3887 112.29 45.2388 111.664 46.1143C111.037 46.9899 110.379 47.8331 109.711 48.6739C108.349 50.3786 106.872 51.9893 105.292 53.4951C104.863 53.8786 104.47 54.2598 104.008 54.6063L103.671 54.8789L103.504 55.0129C103.442 55.0614 103.416 55.0891 103.289 55.1792C102.911 55.4495 102.496 55.6635 102.056 55.8145C101.374 56.0471 100.662 56.1756 99.942 56.1956C99.3341 56.2169 98.7255 56.1906 98.1217 56.1171C95.9122 55.8265 93.7567 55.2164 91.7227 54.306L92.3834 52.0143C94.338 52.2456 96.3064 52.3398 98.2741 52.2962C98.7092 52.2735 99.1426 52.2264 99.5724 52.1553C99.8936 52.1066 100.205 52.0084 100.496 51.8642C100.589 51.8157 100.64 51.7649 100.628 51.7533C100.617 51.7418 100.677 51.7048 100.711 51.6701L100.841 51.55L101.097 51.319C101.441 51.0141 101.767 50.6445 102.102 50.3072C102.763 49.5957 103.421 48.868 104.042 48.0918C104.664 47.3156 105.297 46.5371 105.907 45.7332C106.517 44.9292 107.11 44.1161 107.706 43.3052C108.302 42.4944 108.882 41.635 109.434 40.845L113.491 43.4415Z" fill="#F9B499"/>
<path d="M115.709 42.4275C116.993 46.6295 109.541 51.2867 109.541 51.2867L104.689 45.1187C105.782 43.0823 107.132 41.1948 108.707 39.5029C112.003 35.9176 114.731 39.2303 115.709 42.4275Z" fill="#8BE3F9"/>
<path d="M93.5063 52.1552L89.5791 51.4368L89.9926 54.828C89.9926 54.828 92.0324 55.9831 93.5109 54.1835L93.5063 52.1552Z" fill="#F9B499"/>
<path d="M88.0708 52.2014L88.9186 54.6501L89.9882 54.828L89.5747 51.4368L88.0708 52.2014Z" fill="#F9B499"/>
<path d="M117.354 33.8037C117.35 33.624 117.328 33.4452 117.287 33.2701C117.287 33.2701 118.936 33.0899 119.719 32.1936C119.708 32.1936 119.474 33.344 117.354 33.8037Z" fill="#F7A48B"/>
<path d="M120.306 24.2562C120.999 27.3379 121.574 29.1075 120.5 31.1311C118.883 34.1458 114.738 33.857 113.13 31.0433C111.682 28.5022 110.774 23.8959 113.387 21.8191C113.96 21.3594 114.64 21.0534 115.364 20.93C116.088 20.8066 116.831 20.8699 117.524 21.1139C118.216 21.3579 118.835 21.7745 119.322 22.3244C119.809 22.8742 120.147 23.5391 120.306 24.2562Z" fill="#F9B499"/>
<path d="M114.119 27.2847L112.946 28.0032L113.057 23.9905C112.301 24.0229 111.555 23.8071 110.934 23.376C111.356 22.9718 117.959 20.6594 120.017 21.0659C120.232 20.9782 120.493 20.5808 120.493 20.5808C120.493 20.5808 120.571 21.0821 120.225 21.2738C120.477 21.2253 121.107 21.3478 121.283 21.7174C120.993 21.6381 120.686 21.656 120.407 21.7682C120.407 21.7682 122.699 22.1147 121.886 25.2934C120.962 28.7956 121.276 30.81 121.276 30.81C121.276 30.81 119.571 32.1267 118.088 31.8842C116.501 30.1354 114.216 28.0402 114.119 27.2847Z" fill="#083743"/>
<path d="M111.867 23.0594C110.005 23.0594 109.337 22.1492 108.864 21.3846C110.201 21.2437 112.987 20.3843 115.053 20.2295C117.118 20.0748 119.386 20.4605 118.703 21.3846C118.019 22.3086 111.867 23.0594 111.867 23.0594Z" fill="#8BE3F9"/>
<path d="M112.271 22.2302C110.742 22.0154 109.252 20.5762 110.398 19.197C110.823 20.2088 113.685 20.091 115.711 19.659C118.386 19.1023 120.239 20.0033 119.292 21.8259C118.781 22.8308 112.271 22.2302 112.271 22.2302Z" fill="#083743"/>
<path d="M115.764 26.3723C115.981 27.1266 115.947 27.9312 115.665 28.6639C115.281 29.6226 114.434 29.4286 113.99 28.5992C113.609 27.8346 113.318 26.4485 113.967 25.7555C114.616 25.0625 115.487 25.4667 115.764 26.3723Z" fill="#F9B499"/>
</svg>
